<svg width="52" height="50" viewBox="0 0 52 50" fill="none" xmlns="http://www.w3.org/2000/svg">
<path fill-rule="evenodd" clip-rule="evenodd" d="M26.0001 35.8412C27.5673 34.4665 28.8184 32.7919 29.6732 30.925C30.5279 29.0582 30.9675 27.0401 30.9636 25.0003C30.9675 22.9605 30.528 20.9424 29.6732 19.0755C28.8185 17.2086 27.5674 15.5341 26.0001 14.1594C23.3202 11.8072 19.7652 10.3738 15.864 10.3738C7.52511 10.3738 0.764648 16.9222 0.764648 25.0003C0.764648 33.0781 7.52511 39.6268 15.864 39.6268C19.7652 39.6268 23.3205 38.1934 26.0001 35.8412Z" fill="#3A9BD9"/>
<path fill-rule="evenodd" clip-rule="evenodd" d="M36.1362 10.3738C32.235 10.3738 28.6795 11.8072 26.0001 14.1594C25.4537 14.6395 24.9442 15.157 24.4756 15.708H27.5235C27.9419 16.1997 28.3267 16.7171 28.6754 17.2568H23.3245C23.0024 17.7559 22.7117 18.2731 22.454 18.8057H29.5446C29.7887 19.3097 30.0026 19.8268 30.1853 20.3543H21.8146C21.6391 20.8624 21.4927 21.3793 21.3762 21.9029H30.624C30.8504 22.921 30.9643 23.9592 30.9639 25.0003C30.9639 26.6241 30.6898 28.1865 30.1856 29.6461H21.8146C21.9967 30.1737 22.2102 30.6908 22.454 31.1949H29.5446C29.2874 31.7275 28.997 32.2447 28.6751 32.7438H23.3245C23.6729 33.2835 24.0573 33.8008 24.4754 34.2926H27.5235C27.0555 34.8438 26.5464 35.3615 26.0001 35.8415C28.6795 38.1937 32.235 39.6271 36.1362 39.6271C44.4748 39.6271 51.2356 33.0784 51.2356 25.0006C51.2356 16.9222 44.4748 10.3738 36.1362 10.3738Z" fill="#CC2131"/>
<path fill-rule="evenodd" clip-rule="evenodd" d="M49.2249 33.1535C49.2249 32.8926 49.4431 32.6809 49.7129 32.6809C49.9821 32.6809 50.2004 32.8926 50.2004 33.1535C50.2004 33.414 49.9821 33.6256 49.7129 33.6256C49.5831 33.6252 49.4587 33.5753 49.3672 33.4867C49.2757 33.3982 49.2245 33.2783 49.2249 33.1535V33.1535ZM49.7126 33.512C49.9171 33.512 50.083 33.352 50.083 33.1533C50.083 32.9546 49.9171 32.794 49.7126 32.794C49.5076 32.794 49.3417 32.9546 49.3417 33.1533C49.3417 33.352 49.5078 33.512 49.7126 33.512ZM49.6468 33.3605H49.5467V32.945H49.728C49.7655 32.945 49.8038 32.946 49.837 32.9662C49.8542 32.9779 49.8682 32.9935 49.8777 33.0116C49.8873 33.0297 49.8921 33.0497 49.8917 33.07C49.8917 33.1167 49.8634 33.1608 49.8175 33.1774L49.8966 33.3603H49.7854L49.7202 33.1961H49.647V33.3605V33.1255H49.7024C49.7223 33.1255 49.745 33.1265 49.7631 33.117C49.7711 33.1116 49.7776 33.1045 49.782 33.0962C49.7864 33.0878 49.7886 33.0786 49.7884 33.0692C49.7881 33.0609 49.7857 33.0527 49.7815 33.0454C49.7773 33.0381 49.7713 33.0319 49.7641 33.0272C49.7469 33.0171 49.7188 33.0197 49.6999 33.0197H49.6473V33.3605H49.6468Z" fill="#CC2131"/>
<path fill-rule="evenodd" clip-rule="evenodd" d="M46.0317 28.1703C46.0317 27.9093 46.25 27.6977 46.5192 27.6977C46.7884 27.6977 47.0067 27.9093 47.0067 28.1703C47.0067 28.4313 46.7884 28.6424 46.5192 28.6424C46.25 28.6424 46.0317 28.431 46.0317 28.1703ZM46.5189 28.5288C46.7234 28.5288 46.8893 28.3682 46.8893 28.17C46.8893 27.9713 46.7234 27.8108 46.5189 27.8108C46.3139 27.8108 46.1485 27.9713 46.1485 28.17C46.1485 28.3682 46.3142 28.5288 46.5189 28.5288ZM46.4531 28.3773H46.353V27.9623H46.5343C46.5718 27.9623 46.6106 27.9628 46.6433 27.9835C46.6605 27.9951 46.6745 28.0106 46.6841 28.0286C46.6936 28.0466 46.6984 28.0666 46.698 28.0868C46.698 28.134 46.67 28.1776 46.6239 28.1942L46.7029 28.377H46.5923L46.5265 28.2128H46.4534V28.3773V28.1423H46.5087C46.5292 28.1423 46.5518 28.1438 46.5694 28.1342C46.5773 28.1289 46.5838 28.1217 46.5882 28.1134C46.5926 28.1051 46.5948 28.0959 46.5947 28.0865C46.5945 28.0781 46.5922 28.0698 46.588 28.0624C46.5838 28.055 46.5778 28.0487 46.5705 28.044C46.5532 28.0344 46.5251 28.0365 46.5068 28.0365H46.4536V28.3773H46.4531ZM13.9775 28.6424H12.0983L13.2151 22.9419L10.6437 28.6424H8.9301L8.61689 22.9746L7.49653 28.6424H5.79077L7.24834 21.2271H10.1808L10.3359 25.8178L12.4034 21.2271H15.4591L13.9775 28.6424V28.6424ZM34.9795 28.5685C34.4653 28.7052 34.0633 28.7641 33.629 28.7641C32.6675 28.7641 32.1426 28.2969 32.1426 27.4398C32.1426 27.2702 32.162 27.0897 32.1979 26.8987L32.3122 26.3091L32.4002 25.8319L33.2713 21.2268H35.1402L34.8694 22.6117H35.8284L35.5708 24.0778H34.6077L34.1124 26.594C34.0941 26.6761 34.0833 26.7597 34.0803 26.8438C34.0803 27.1553 34.2748 27.2907 34.7216 27.2907C34.9355 27.2907 35.1014 27.272 35.2285 27.2344L34.9795 28.5685ZM40.4682 22.6613C40.3107 22.6011 40.2737 22.6011 40.2554 22.5962C40.1558 22.5749 40.1027 22.5624 40.0935 22.5609C40.0311 22.5504 39.9678 22.5453 39.9044 22.5458C39.2874 22.5458 38.8426 22.812 38.2674 23.525L38.4333 22.6112H36.7314L35.5859 28.6421H37.4665C38.1393 24.9538 38.4274 24.3079 39.3295 24.3079C39.3975 24.3079 39.476 24.3131 39.5672 24.3232L39.7868 24.3665L40.4682 22.6613V22.6613ZM27.5297 24.517C27.5297 25.2788 27.973 25.8036 28.9776 26.1979C29.7475 26.5008 29.8665 26.5895 29.8665 26.8635C29.8665 27.2388 29.5271 27.4082 28.7753 27.4082C28.2077 27.4082 27.6803 27.3343 27.0714 27.1696L26.8105 28.5607L26.8947 28.5744L27.243 28.6362C27.3552 28.6549 27.5206 28.6727 27.7399 28.6888C28.192 28.7228 28.5419 28.7389 28.7885 28.7389C30.7945 28.7389 31.7212 28.1021 31.7212 26.7265C31.7212 25.8988 31.3338 25.4134 30.3812 25.048C29.584 24.7427 29.4918 24.6749 29.4918 24.3935C29.4918 24.0685 29.808 23.9014 30.4222 23.9014C30.7959 23.9014 31.3052 23.9354 31.7883 23.992L32.0592 22.5959C31.5671 22.531 30.8204 22.4779 30.3863 22.4779C28.2595 22.4781 27.5233 23.4047 27.5297 24.517V24.517ZM20.0868 28.6424H18.525L18.5615 28.0173C18.0859 28.5122 17.4519 28.7467 16.5902 28.7467C15.5719 28.7467 14.8729 28.0748 14.8729 27.0995C14.8729 25.6303 16.0871 24.774 18.1741 24.774C18.388 24.774 18.6597 24.7904 18.9397 24.8205C18.998 24.6223 19.0139 24.5367 19.0139 24.4288C19.0139 24.0296 18.6861 23.8802 17.8085 23.8802C17.272 23.8802 16.6655 23.9455 16.2468 24.0482L15.9865 24.1123L15.8179 24.1512L16.0785 22.7954C17.0154 22.563 17.6337 22.475 18.3284 22.475C19.9435 22.475 20.7971 23.0877 20.7971 24.2441C20.7971 24.5416 20.7687 24.7676 20.6444 25.4389L20.2516 27.5784L20.1855 27.9623L20.1375 28.2689L20.1054 28.4787L20.0868 28.6424V28.6424ZM18.7158 25.9556C18.5764 25.9389 18.4362 25.9306 18.2957 25.9307C17.2307 25.9307 16.6911 26.2391 16.6911 26.8482C16.6911 27.2235 16.9544 27.4632 17.3653 27.4632C18.1315 27.4634 18.6834 26.8474 18.7158 25.9556ZM26.2518 28.5122C25.6242 28.676 24.9766 28.7582 24.3262 28.7568C22.2252 28.7552 21.1302 27.8287 21.1302 26.0549C21.1302 23.9847 22.5233 22.4605 24.4144 22.4605C25.9616 22.4605 26.9495 23.3142 26.9495 24.6526C26.9495 25.097 26.882 25.5302 26.7188 26.1416H22.9822C22.9708 26.2041 22.9647 26.2674 22.9641 26.3309C22.9641 27.03 23.5212 27.3867 24.6127 27.3867C25.2839 27.3867 25.8906 27.2686 26.5642 27.0051L26.2518 28.5122ZM25.251 24.9237C25.2612 24.7982 25.2666 24.6954 25.2666 24.6161C25.2666 24.1263 24.9372 23.8389 24.3777 23.8389C23.7799 23.8389 23.3523 24.2244 23.1789 24.9201L25.251 24.9237ZM46.3099 25.9081C46.0285 27.9143 44.5822 28.804 42.6596 28.804C40.5335 28.804 39.6748 27.5548 39.6748 26.0241C39.6748 23.8866 41.1292 22.4384 43.3753 22.4384C45.3249 22.4384 46.36 23.6293 46.36 25.1603C46.36 25.5328 46.3595 25.5574 46.3099 25.9081ZM44.3745 25.1364C44.3745 24.5056 44.1101 23.91 43.3397 23.91C42.3806 23.91 41.7863 25.008 41.7863 25.9774C41.7863 26.795 42.1937 27.3444 42.8654 27.3327C43.2728 27.3327 44.1414 26.7952 44.3133 25.8565C44.3535 25.6376 44.3745 25.3974 44.3745 25.1364V25.1364Z" fill="#436D99"/>
</svg>
